<?xml version="1.0" encoding="UTF-8"?>
<svg id="Livello_1" data-name="Livello 1" xmlns="http://www.w3.org/2000/svg" viewBox="0 0 630 630">
  <defs>
    <style>
      .cls-1 {
        fill: #fff;
        stroke: #000;
        stroke-linejoin: round;
        stroke-width: 4px;
      }
    </style>
  </defs>
  <g>
    <path class="cls-1" d="M227.02,214.51h43.26v-15.38l21.92-7.79c40.13-14.27,84.72,6.04,99.33,45.23,14.61,39.19-6.18,82.74-46.32,97l-65.19,23.17,14.61,39.19,65.51-23.29c31.07-11.04,54.64-33.38,67.49-60.86,1.44-3.02,2.88-6.04,4-8.94,9.64-25.26,10.37-53.8,.24-80.98-22.74-61-91.93-92.25-154.4-70.05l-65.26,22.99,14.8,39.69Z"/>
    <path class="cls-1" d="M402.98,415.49h-43.26v15.38l-21.93,7.79c-40.13,14.27-84.72-6.04-99.33-45.23-14.61-39.19,6.18-82.74,46.32-97l65.19-23.17-14.61-39.19-65.51,23.29c-31.07,11.04-54.64,33.38-67.49,60.86-1.44,3.02-2.88,6.04-4,8.94-9.64,25.26-10.37,53.8-.24,80.98,22.74,61,91.93,92.25,154.4,70.05l65.26-22.99-14.79-39.69h0Z"/>
  </g>
  <path class="cls-1" d="M468.4,49.3h0s-1.33,0-1.33,0h-91.56s-29.32,0-29.32,0h-62.36s0,0,0,0h-40s0,0,0,0h-82.22s-41.11,71.21-41.11,71.21h0s-20,34.64-20,34.64h0s-31.19,54.02-31.19,54.02l-20,34.63L8.2,315h0s0,0,0,0l153.4,265.7H468.4s26.16-45.3,26.16-45.3l14.95-25.89h0s112.3-194.5,112.3-194.5L468.4,49.3Zm-219.23,20h0s122.56,0,122.56,0h11.98s37.14,0,37.14,0h36s18.01,31.18,18.01,31.18h0s20.01,34.65,20.01,34.65h0s65.83,114.03,65.83,114.03h0s20.01,34.64,20.01,34.64h0s18,31.19,18,31.19l-101.2,175.28-2.65,4.58h0s-38.01,65.83-38.01,65.83h-11.32s-272.38,0-272.38,0l-18.01-31.2h0s-19.99-34.63-19.99-34.63h0s-65.83-114.03-65.83-114.03h0s-20-34.64-20-34.64h0s-18.01-31.2-18.01-31.2l18.01-31.2,13.11-22.71,35.3-61.14,37.43-64.82h0s20-34.64,20-34.64h0s18.01-31.2,18.01-31.2h36.02s0,0,0,0h40Z"/>
  <path class="cls-1" d="M580.7,161.6L386.19,49.3h0l-25.89-14.95-45.3-26.16L49.3,161.6V468.4h0s71.2,41.11,71.2,41.11l34.63,19.99,54.02,31.19h0l34.64,20h0l71.21,41.11,71.2-41.11h0l34.64-20h0l54.01-31.18,25.39-14.66,79.29-45.78,1.15-.67h0V161.6Zm-234.5,419.09h0l-31.19,18.01-31.2-18.01h0l-34.64-20h0l-64.82-37.42-61.14-35.3-22.7-13.11-31.2-18.01v-36.02h0v-40h0s0-131.67,0-131.67h0s0-39.99,0-39.99h0v-36.03L305.19,36.95l9.81-5.66,65.83,38.01h0l4.58,2.65,175.28,101.2v36.01h0v40.02h0s0,131.66,0,131.66h0s0,40,0,40h0v36.02l-31.18,18-32.16,18.57-10.37,5.99-106.15,61.28h0l-34.64,20Z"/>
</svg>