<?xml version="1.0" encoding="UTF-8"?>
<svg id="Brand_Manual" data-name="Brand Manual" xmlns="http://www.w3.org/2000/svg" viewBox="0 0 450 300">
  <defs>
    <style>
      .cls-1 {
        fill: #fff;
        stroke: #000;
        stroke-linejoin: round;
        stroke-width: 1.05px;
      }

      .cls-2 {
        fill: #730ad7;
      }
    </style>
  </defs>
  <rect class="cls-2" x="-10.77" y="-11.39" width="471.55" height="322.79"/>
  <g>
    <g>
      <path class="cls-1" d="M201.84,123.55h11.39v-4.05l5.77-2.05c10.56-3.75,22.3,1.59,26.15,11.91,3.84,10.32-1.63,21.78-12.19,25.53l-17.16,6.1,3.85,10.32,17.24-6.13c8.18-2.91,14.38-8.79,17.76-16.02,.38-.79,.76-1.59,1.05-2.35,2.54-6.65,2.73-14.16,.06-21.32-5.98-16.06-24.2-24.28-40.64-18.44l-17.18,6.05,3.89,10.45Z"/>
      <path class="cls-1" d="M248.16,176.45h-11.39v4.05l-5.77,2.05c-10.56,3.75-22.3-1.59-26.15-11.91-3.84-10.32,1.63-21.78,12.19-25.53l17.16-6.1-3.85-10.32-17.24,6.13c-8.18,2.91-14.38,8.79-17.76,16.02-.38,.79-.76,1.59-1.05,2.35-2.54,6.65-2.73,14.16-.06,21.32,5.98,16.06,24.2,24.28,40.64,18.44l17.18-6.05-3.89-10.45h0Z"/>
    </g>
    <path class="cls-1" d="M265.38,80.06h0s-.35,0-.35,0h-24.1s-7.72,0-7.72,0h-16.42s0,0,0,0h-10.53s0,0,0,0h-21.64s-10.82,18.74-10.82,18.74h0s-5.26,9.12-5.26,9.12h0s-8.21,14.22-8.21,14.22l-5.26,9.11-10.82,18.74h0s0,0,0,0l40.38,69.94h80.76s6.88-11.92,6.88-11.92l3.93-6.81h0s29.56-51.2,29.56-51.2l-40.38-69.94Zm-57.7,5.26h0s32.26,0,32.26,0h3.15s9.78,0,9.78,0h9.48s4.74,8.21,4.74,8.21h0s5.27,9.12,5.27,9.12h0s17.33,30.01,17.33,30.01h0s5.27,9.12,5.27,9.12h0s4.74,8.21,4.74,8.21l-26.64,46.14-.7,1.21h0s-10,17.33-10,17.33h-2.98s-71.7,0-71.7,0l-4.74-8.21h0s-5.26-9.12-5.26-9.12h0s-17.33-30.01-17.33-30.01h0s-5.26-9.12-5.26-9.12h0s-4.74-8.21-4.74-8.21l4.74-8.21,3.45-5.98,9.29-16.09,9.85-17.06h0s5.26-9.12,5.26-9.12h0s4.74-8.21,4.74-8.21h9.48s0,0,0,0h10.53Z"/>
    <path class="cls-1" d="M294.94,109.62l-51.2-29.56h0l-6.81-3.93-11.92-6.88-69.94,40.38v80.76h0s18.74,10.82,18.74,10.82l9.12,5.26,14.22,8.21h0l9.12,5.26h0l18.74,10.82,18.74-10.82h0l9.12-5.26h0l14.22-8.21,6.68-3.86,20.87-12.05,.3-.18h0V109.62Zm-61.72,110.31h0l-8.21,4.74-8.21-4.74h0l-9.12-5.26h0l-17.06-9.85-16.09-9.29-5.98-3.45-8.21-4.74v-9.48h0v-10.53h0s0-34.66,0-34.66h0s0-10.53,0-10.53h0v-9.48l62.09-35.85,2.58-1.49,17.33,10h0l1.21,.7,46.14,26.64v9.48h0v10.53h0s0,34.66,0,34.66h0s0,10.53,0,10.53h0v9.48l-8.21,4.74-8.47,4.89-2.73,1.58-27.94,16.13h0l-9.12,5.26Z"/>
  </g>
</svg>