<?xml version="1.0" encoding="UTF-8"?>
<svg id="Brand_Manual" data-name="Brand Manual" xmlns="http://www.w3.org/2000/svg" viewBox="0 0 450 300">
  <defs>
    <style>
      .cls-1 {
        fill: #00a19a;
      }
    </style>
  </defs>
  <rect x="-8.5" y="-9.84" width="467.01" height="319.68"/>
  <g>
    <g id="Livello_1-2" data-name="Livello 1-2">
      <g>
        <path class="cls-1" d="M198.45,117.01c3.54,1.69,6.68,3.83,9.37,6.99,4.79,5.6,7.62,14.83,8.22,19.8-3.62,.13-6.08,.66-12.5-.2-3.42-.46-8.26-3.64-10.86-5.51-.78,.94-5.47,12.27-5.5,12.32,5.07,2.38,10.19,2.8,16.04,3.23,4.76,.36,12.34,.49,16.55-.35,.92-.19,1.55-.36,1.99-.57l4.61,10.56c.84,1.92,1.44,3.57,1.81,4.96-1.92,2.1-3.68,3.66-5.27,4.67-3.09,1.97-7.11,3.22-12.08,3.76v2.48h35.95v-2.45c-3.81-.66-6.27-1.52-7.39-2.58l16.47-25.55-13.15-1.75-8.72,14.14c-.49,.68-.96,1.33-1.44,1.96-.25-.55-.49-1.11-.74-1.69l-5.11-11.78-.14-.32-.23-.54-26.23-60.45h-2.96l-31.38,73.88c-2.55,6-4.87,9.89-6.94,11.67-2.08,1.79-4.98,2.79-8.69,3.01v2.45h35.91v-2.45c-3.63-.17-6.08-.77-7.35-1.79-1.27-1.01-1.91-2.25-1.91-3.7,0-1.95,.89-5,2.69-9.2l18.98-45.02Z"/>
        <path class="cls-1" d="M288.29,104.26v58.79c0,5.2,.47,8.48,1.42,9.87,1.65,2.51,4.41,3.76,8.25,3.76h1.86v2.48h-35.9v-2.48h2.03c3.4,0,5.95-.98,7.66-2.96,1.25-1.39,1.88-4.94,1.88-10.67v-37.63c-.03-.1-.06-.19-.1-.28-3.96-12.58-14.96-21.89-27.9-23.79-5.46-.8-11.07-.45-16.56-.62-.49,8.09,4.25,19.03,11.46,27.88,6.25,7.68,14.23,12.76,23.41,16.1,0,0,0,.01,0,.01-.27,.98-1.05,1.42-2.05,1.76-1.62,.55-3.4,.37-5.03,.09-22.63-3.94-40.62-25.44-41.67-49.61-.28-6.61,.52-7.68,6.69-8.03,6.58-.38,13.17-.74,19.76-.75,9.77-.03,18.78,2.77,26.78,8.79,1.49,1.13,3.07,2.17,5.11,3.62,.03,.02,.06,.04,.1,.06v-12.5h24.39v2.48h-1.9c-3.45,0-6.04,.99-7.79,2.96-1.25,1.39-1.88,4.94-1.88,10.67Z"/>
      </g>
    </g>
    <g>
      <g>
        <path class="cls-1" d="M206.94,207.79h-4.7l-.82,1.92c-.2,.47-.3,.82-.3,1.06,0,.19,.09,.35,.26,.49,.18,.14,.56,.23,1.14,.27v.33h-3.82v-.33c.51-.09,.84-.21,.98-.35,.3-.29,.64-.87,1.01-1.75l4.27-9.99h.31l4.22,10.09c.34,.81,.65,1.34,.93,1.58s.66,.38,1.16,.41v.33h-4.79v-.33c.48-.02,.81-.1,.98-.24,.17-.14,.26-.3,.26-.5,0-.26-.12-.68-.36-1.24l-.73-1.75Zm-.25-.66l-2.06-4.9-2.11,4.9h4.17Z"/>
        <path class="cls-1" d="M224.18,211.85h-3.24l-4.11-5.67c-.3,.01-.55,.02-.74,.02-.08,0-.16,0-.25,0-.09,0-.18,0-.28-.01v3.53c0,.76,.08,1.24,.25,1.42,.23,.26,.57,.39,1.02,.39h.47v.33h-5.2v-.33h.46c.51,0,.88-.17,1.1-.5,.13-.18,.19-.62,.19-1.32v-7.84c0-.76-.08-1.24-.25-1.42-.23-.26-.58-.39-1.04-.39h-.46v-.33h4.42c1.29,0,2.24,.09,2.85,.28,.61,.19,1.13,.53,1.56,1.04,.43,.5,.64,1.11,.64,1.8,0,.75-.24,1.39-.73,1.94-.49,.55-1.24,.94-2.26,1.16l2.51,3.48c.57,.8,1.06,1.33,1.48,1.59,.41,.26,.95,.43,1.61,.5v.33Zm-8.62-6.24c.11,0,.21,0,.3,0,.08,0,.15,0,.21,0,1.16,0,2.03-.25,2.62-.75,.59-.5,.88-1.14,.88-1.92s-.24-1.37-.71-1.85-1.1-.71-1.88-.71c-.35,0-.81,.06-1.41,.17v5.05Z"/>
        <path class="cls-1" d="M237.09,205.55v.73l-.31,.33h-2.91v2.91l-.33,.31h-.73l-.33-.31v-2.91h-2.91l-.33-.33v-.73l.33-.33h2.91v-2.91l.33-.33h.73l.33,.33v2.91h2.91l.31,.33Z"/>
      </g>
      <path class="cls-1" d="M251.1,200.07c.76,4.13-.67,8.13-3.66,10.19-2.15,1.48-4.48,1.52-5.52,1.47l-.03-.02c-.29-1-.79-3.27,.15-5.71,1.31-3.39,4.87-5.71,9.06-5.93Z"/>
    </g>
  </g>
</svg>