<?xml version="1.0" encoding="UTF-8"?>
<svg id="Brand_Manual" data-name="Brand Manual" xmlns="http://www.w3.org/2000/svg" viewBox="0 0 450 300">
  <defs>
    <style>
      .cls-1, .cls-2, .cls-3, .cls-4, .cls-5, .cls-6, .cls-7, .cls-8, .cls-9 {
        fill: #fff;
      }

      .cls-2, .cls-10, .cls-11, .cls-3, .cls-12, .cls-4, .cls-5, .cls-6, .cls-7, .cls-8, .cls-9, .cls-13 {
        stroke-miterlimit: 10;
      }

      .cls-2, .cls-11, .cls-3, .cls-5, .cls-7, .cls-8, .cls-13 {
        stroke: #000;
      }

      .cls-2, .cls-5, .cls-6, .cls-9 {
        stroke-width: 1.42px;
      }

      .cls-10, .cls-12, .cls-13 {
        fill: none;
      }

      .cls-10, .cls-4, .cls-6, .cls-9 {
        stroke: #fff;
      }

      .cls-10, .cls-13 {
        stroke-width: 1.98px;
      }

      .cls-11, .cls-14 {
        fill: blue;
      }

      .cls-11, .cls-12 {
        stroke-width: 1.94px;
      }

      .cls-3 {
        stroke-width: 1.42px;
      }

      .cls-3, .cls-5, .cls-6 {
        stroke-linecap: round;
      }

      .cls-12 {
        stroke: blue;
      }

      .cls-4, .cls-7 {
        stroke-width: 1.38px;
      }

      .cls-15 {
        fill: #e27e3c;
      }

      .cls-8 {
        stroke-width: .61px;
      }
    </style>
  </defs>
  <rect class="cls-15" x="-8.5" y="-6.52" width="467.01" height="312.12"/>
  <g>
    <g>
      <circle class="cls-12" cx="276.31" cy="150" r="47.02"/>
      <circle class="cls-10" cx="276.31" cy="150" r="47.78"/>
      <g>
        <line class="cls-6" x1="276.29" y1="130.3" x2="276.29" y2="156.68"/>
        <line class="cls-9" x1="279.14" y1="137.3" x2="279.14" y2="149.69"/>
        <line class="cls-9" x1="273.44" y1="137.3" x2="273.44" y2="149.69"/>
        <line class="cls-6" x1="308.75" y1="160.03" x2="308.75" y2="126.96"/>
        <line class="cls-9" x1="311.6" y1="136.09" x2="311.6" y2="150.89"/>
        <line class="cls-9" x1="305.9" y1="133.56" x2="305.9" y2="153.43"/>
        <line class="cls-4" x1="246.7" y1="133.56" x2="246.7" y2="153.43"/>
        <path class="cls-1" d="M266.23,125.98h4.35v35.03h-4.35v-23.82l-5.23,11.86h-2.59l-5.23-11.86v23.82h-4.35v-35.03h4.35l6.53,14.84,6.53-14.84Z"/>
        <line class="cls-6" x1="243.88" y1="126.97" x2="243.86" y2="160.02"/>
        <line class="cls-9" x1="241.02" y1="136.09" x2="241.02" y2="150.89"/>
        <path class="cls-14" d="M266.94,125.98h4.35v35.03h-4.35v-23.82l-5.23,11.86h-2.59l-5.23-11.86v23.82h-4.35v-35.03h4.35l6.53,14.84,6.53-14.84Z"/>
        <path class="cls-14" d="M299.41,125.98h4.35v35.03h-4.35v-23.82l-5.23,11.86h-2.59l-5.23-11.86v23.82h-4.35v-35.03h4.35l6.53,14.84,6.53-14.84Z"/>
        <path class="cls-1" d="M298.69,125.98h4.35v35.03h-4.35v-23.82l-5.23,11.86h-2.59l-5.23-11.86v23.82h-4.35v-35.03h4.35l6.53,14.84,6.53-14.84Z"/>
      </g>
      <g>
        <path class="cls-1" d="M246.22,166.95c.22,0,.42,.02,.61,.05,.19,.03,.35,.07,.49,.12,.16,.05,.31,.1,.44,.16l.13,.18-.08,1.2-.17,.1c-.15-.07-.31-.13-.48-.18-.14-.05-.31-.1-.49-.13-.18-.04-.37-.05-.56-.05-.28,0-.49,.04-.6,.12-.12,.08-.18,.21-.18,.37,0,.19,.07,.33,.21,.43,.14,.1,.32,.19,.53,.27,.21,.08,.44,.16,.69,.25,.25,.09,.48,.21,.69,.36,.21,.15,.39,.35,.53,.61,.14,.25,.21,.58,.21,.99,0,.34-.06,.63-.18,.89-.12,.26-.28,.48-.49,.65-.21,.17-.46,.31-.74,.4-.28,.09-.59,.14-.92,.14-.26,0-.51-.02-.72-.07-.22-.05-.41-.09-.57-.15-.19-.06-.36-.14-.51-.21l-.12-.19,.09-1.12,.15-.16c.15,.08,.32,.16,.5,.22,.15,.05,.33,.1,.54,.15,.2,.05,.42,.07,.65,.07,.32,0,.55-.05,.68-.14,.13-.09,.2-.23,.2-.42,0-.2-.07-.36-.21-.47-.14-.11-.32-.2-.53-.28-.21-.08-.44-.16-.69-.24s-.48-.19-.69-.34c-.21-.15-.39-.34-.53-.58-.14-.24-.21-.56-.21-.96,0-.63,.19-1.12,.56-1.49,.37-.37,.97-.55,1.78-.55Z"/>
        <path class="cls-1" d="M252.1,166.95c.42,0,.81,.09,1.17,.26,.36,.17,.67,.42,.93,.72,.26,.31,.47,.67,.62,1.09s.22,.88,.22,1.37-.07,.95-.22,1.38c-.15,.43-.35,.8-.62,1.11-.26,.31-.57,.55-.93,.73-.36,.18-.75,.27-1.17,.27s-.81-.09-1.16-.27c-.36-.18-.67-.42-.93-.73-.26-.31-.47-.68-.62-1.1-.15-.42-.22-.88-.22-1.38s.07-.96,.22-1.38c.15-.42,.35-.78,.62-1.09s.57-.54,.93-.72c.36-.17,.74-.26,1.16-.26Zm.02,1.44c-.21,0-.4,.05-.59,.15s-.35,.24-.49,.42c-.14,.18-.25,.39-.33,.64-.08,.25-.12,.51-.12,.8s.04,.55,.12,.8c.08,.25,.19,.46,.33,.64,.14,.18,.3,.32,.49,.43,.19,.1,.38,.16,.59,.16s.41-.05,.59-.16c.18-.1,.34-.25,.48-.43,.14-.18,.24-.4,.32-.64s.12-.52,.12-.8-.04-.55-.12-.8c-.08-.25-.18-.46-.32-.64-.14-.18-.3-.32-.48-.42-.18-.1-.38-.15-.59-.15Z"/>
        <path class="cls-1" d="M260.99,167.11v3.8c0,.45-.06,.86-.17,1.22-.12,.37-.28,.68-.49,.93-.21,.26-.47,.45-.78,.59-.3,.14-.65,.21-1.03,.21s-.73-.07-1.03-.21c-.31-.14-.57-.33-.79-.59-.22-.26-.38-.57-.5-.93-.12-.37-.18-.77-.18-1.22v-3.8l.13-.17h1.11l.14,.17v3.8c0,.47,.11,.84,.32,1.1,.21,.26,.48,.4,.81,.4s.59-.13,.79-.4c.2-.26,.3-.63,.3-1.1v-3.8l.13-.17h1.11l.14,.17Z"/>
        <path class="cls-1" d="M267.14,167.12v6.57l-.13,.18h-1.92l-1.68-4.82h-.07v4.65s-.13,.17-.13,.17h-1.11l-.13-.17v-6.57l.13-.18h1.91l1.68,4.82h.08v-4.65l.14-.18h1.11l.13,.18Z"/>
        <path class="cls-1" d="M270.45,166.95c.43,0,.82,.08,1.17,.25,.35,.17,.65,.4,.91,.71s.45,.67,.59,1.09c.14,.43,.21,.9,.21,1.41s-.07,.98-.21,1.4c-.14,.42-.34,.79-.6,1.09-.26,.31-.57,.54-.93,.71-.36,.17-.76,.25-1.19,.25h-2.15l-.13-.18v-6.57l.13-.18h2.2Zm.03,5.52c.21,0,.41-.05,.59-.15,.18-.1,.33-.24,.46-.42,.13-.18,.23-.4,.3-.65,.07-.25,.11-.53,.11-.83s-.04-.59-.11-.84c-.07-.25-.18-.47-.31-.65-.13-.18-.29-.33-.48-.43-.19-.1-.39-.15-.6-.15h-.92v4.12h.98Z"/>
        <path class="cls-14" d="M288.51,172.58v1.12l-.13,.18h-3.41l-.14-.18v-6.57l.14-.18h1.11l.13,.18v5.27h2.17l.13,.18Z"/>
        <path class="cls-14" d="M290.86,167.13v6.57l-.14,.18h-1.11l-.13-.18v-6.57l.13-.18h1.11l.14,.18Z"/>
        <path class="cls-14" d="M297.16,170.1v3.57l-.14,.18h-1.08l-.13-.17v-.33h-.08c-.13,.19-.31,.33-.53,.43-.23,.1-.49,.15-.78,.15-.38,0-.72-.08-1.04-.25-.32-.17-.59-.4-.82-.7-.23-.3-.41-.67-.54-1.1-.13-.43-.19-.91-.19-1.45,0-.49,.07-.95,.22-1.38,.15-.42,.36-.79,.64-1.1,.27-.31,.6-.56,.99-.73,.39-.18,.82-.26,1.29-.26,.63,0,1.19,.11,1.71,.33l.12,.2-.12,1.26-.17,.09c-.23-.14-.48-.24-.76-.31-.27-.07-.54-.11-.8-.11s-.49,.05-.7,.16c-.21,.1-.39,.25-.54,.42-.15,.18-.26,.39-.34,.64-.08,.25-.12,.51-.12,.8,0,.32,.04,.61,.12,.86,.08,.25,.19,.47,.33,.64,.14,.18,.31,.31,.5,.4,.19,.09,.41,.14,.65,.14,.18,0,.36-.03,.52-.1,.17-.07,.31-.14,.44-.23v-1h-.91l-.11-.13v-.97l.09-.12h2.15l.14,.18Z"/>
        <path class="cls-14" d="M303.14,167.13v6.57l-.13,.18h-1.11l-.14-.18v-2.54h-2.25v2.54l-.13,.18h-1.11l-.14-.18v-6.57l.14-.18h1.11l.13,.18v2.65h2.25v-2.65l.14-.18h1.11l.13,.18Z"/>
        <path class="cls-14" d="M308.74,167.13v1.08l-.14,.18h-1.5v5.32l-.14,.17h-1.11l-.13-.17v-5.32h-1.49l-.13-.18v-1.08l.13-.18h4.36l.14,.18Z"/>
        <g>
          <path class="cls-1" d="M280.61,168.55c0,.69-.37,1.3-1.06,1.73l.74,.91,.56-.88h1.41l-1.21,1.86,1.28,1.57h-1.57l-.48-.63c-.48,.57-1.01,.8-1.69,.8-1.15,0-2.04-.77-2.04-1.99,0-.77,.45-1.5,1.22-1.81-.5-.61-.63-.99-.63-1.49,0-1.26,.95-1.69,1.79-1.69,.89,0,1.67,.53,1.67,1.63Zm-1.96,4.11c.32,0,.54-.12,.9-.49l-1.01-1.28c-.32,.23-.66,.45-.66,.95s.37,.82,.77,.82Zm.19-3.16c.41-.27,.65-.56,.65-.85,0-.35-.23-.6-.57-.6s-.56,.25-.56,.62c0,.24,.15,.49,.48,.84Z"/>
          <path class="cls-14" d="M279.85,168.55c0,.69-.37,1.3-1.06,1.73l.74,.91,.56-.88h1.41l-1.21,1.86,1.28,1.57h-1.57l-.48-.63c-.48,.57-1.01,.8-1.69,.8-1.15,0-2.04-.77-2.04-1.99,0-.77,.45-1.5,1.22-1.81-.5-.61-.63-.99-.63-1.49,0-1.26,.95-1.69,1.79-1.69,.89,0,1.67,.53,1.67,1.63Zm-1.96,4.11c.32,0,.54-.12,.9-.49l-1.01-1.28c-.32,.23-.66,.45-.66,.95s.37,.82,.77,.82Zm.19-3.16c.41-.27,.65-.56,.65-.85,0-.35-.23-.6-.57-.6s-.56,.25-.56,.62c0,.24,.15,.49,.48,.84Z"/>
        </g>
      </g>
    </g>
    <g>
      <circle class="cls-11" cx="378.93" cy="150" r="47.02"/>
      <circle class="cls-13" cx="378.93" cy="150" r="47.78"/>
      <g>
        <line class="cls-5" x1="378.91" y1="130.31" x2="378.91" y2="156.69"/>
        <line class="cls-2" x1="381.76" y1="137.31" x2="381.76" y2="149.7"/>
        <line class="cls-2" x1="376.06" y1="137.31" x2="376.06" y2="149.7"/>
        <line class="cls-5" x1="411.37" y1="160.04" x2="411.37" y2="126.97"/>
        <line class="cls-2" x1="414.22" y1="136.1" x2="414.22" y2="150.9"/>
        <line class="cls-2" x1="408.52" y1="133.57" x2="408.52" y2="153.44"/>
        <line class="cls-7" x1="349.32" y1="133.57" x2="349.32" y2="153.44"/>
        <line class="cls-3" x1="346.5" y1="126.98" x2="346.48" y2="160.03"/>
        <line class="cls-2" x1="343.64" y1="136.1" x2="343.64" y2="150.9"/>
        <g>
          <path class="cls-8" d="M369.22,126.29h4.35v34.42h-4.35v-23.41l-5.23,11.65h-2.59l-5.23-11.65v23.41h-4.35v-34.42h4.35l6.53,14.58,6.53-14.58Z"/>
          <path class="cls-8" d="M401.67,126.29h4.35v34.42h-4.35v-23.41l-5.23,11.65h-2.59l-5.23-11.65v23.41h-4.35v-34.42h4.35l6.53,14.58,6.53-14.58Z"/>
        </g>
      </g>
      <g>
        <path class="cls-1" d="M350.34,173.88c-.26,0-.5-.02-.72-.07-.21-.04-.4-.09-.56-.14-.19-.06-.36-.14-.51-.21l-.05-.02-.18-.28,.09-1.19,.29-.31,.14,.07c.14,.07,.28,.14,.44,.2,.14,.04,.3,.09,.48,.13,.18,.04,.37,.06,.57,.06,.34,0,.47-.06,.52-.1,.05-.03,.1-.09,.1-.23,0-.16-.07-.24-.12-.28-.12-.09-.27-.17-.45-.23-.2-.07-.41-.15-.64-.22-.25-.08-.49-.2-.7-.34-.22-.15-.41-.36-.56-.61-.15-.26-.23-.6-.23-1.01,0-.64,.2-1.16,.59-1.55,.39-.38,1-.58,1.81-.58,.22,0,.42,.02,.61,.05,.19,.03,.35,.07,.49,.12,.15,.04,.3,.1,.44,.16l.05,.02,.2,.27-.08,1.31-.35,.2-.09-.05c-.13-.06-.27-.12-.42-.16-.14-.05-.28-.09-.44-.12-.16-.03-.32-.05-.49-.05-.29,0-.41,.05-.46,.08-.04,.03-.08,.07-.08,.18s.04,.18,.11,.24c.12,.08,.27,.16,.45,.23,.2,.08,.41,.15,.64,.23,.25,.09,.48,.21,.7,.36,.22,.16,.41,.37,.56,.63,.15,.27,.23,.61,.23,1.03,0,.34-.06,.65-.19,.92-.12,.27-.3,.5-.52,.68-.22,.18-.47,.32-.76,.41-.29,.09-.6,.14-.93,.14Z"/>
        <path d="M350.68,167.18c.2,0,.39,.02,.57,.05,.18,.03,.33,.07,.46,.11,.15,.04,.29,.09,.41,.15l.12,.17-.07,1.13-.16,.09c-.14-.07-.29-.12-.45-.17-.14-.05-.29-.09-.46-.12-.17-.03-.35-.05-.53-.05-.27,0-.46,.04-.57,.11-.11,.08-.17,.19-.17,.35,0,.18,.07,.31,.2,.41,.13,.09,.3,.18,.5,.25,.2,.08,.41,.15,.65,.24,.23,.08,.45,.19,.65,.34,.2,.14,.37,.33,.5,.57,.13,.24,.2,.55,.2,.93,0,.32-.06,.6-.17,.84-.11,.24-.27,.45-.46,.61-.2,.16-.43,.29-.7,.37-.27,.09-.56,.13-.87,.13-.25,0-.47-.02-.68-.06-.21-.04-.38-.09-.54-.14-.18-.06-.34-.13-.48-.2l-.12-.18,.08-1.05,.14-.15c.15,.08,.3,.15,.47,.21,.15,.05,.31,.1,.51,.14,.19,.05,.4,.07,.61,.07,.3,0,.51-.04,.64-.13,.13-.09,.19-.22,.19-.4,0-.19-.07-.33-.2-.44-.13-.1-.3-.19-.5-.26-.2-.07-.42-.15-.65-.22-.23-.08-.45-.18-.65-.32s-.37-.32-.5-.55c-.13-.23-.2-.53-.2-.91,0-.59,.18-1.06,.53-1.4s.91-.52,1.67-.52m0-.4c-.87,0-1.53,.21-1.95,.64-.43,.42-.65,.99-.65,1.69,0,.45,.09,.82,.26,1.11,.16,.28,.37,.51,.62,.68,.23,.16,.48,.28,.75,.37,.23,.07,.44,.15,.63,.22,.16,.06,.29,.13,.39,.2,.02,.01,.04,.03,.04,.12,0,.05-.01,.06-.02,.06,0,0-.09,.06-.41,.06-.19,0-.36-.02-.52-.06-.18-.04-.34-.09-.47-.13-.14-.05-.28-.11-.41-.18l-.27-.15-.21,.23-.14,.15-.1,.1v.14s-.09,1.05-.09,1.05v.13s.06,.11,.06,.11l.12,.18,.06,.09,.1,.05c.16,.08,.34,.16,.54,.22,.17,.05,.36,.1,.58,.15,.23,.05,.49,.07,.76,.07,.35,0,.68-.05,.99-.15,.32-.1,.6-.25,.83-.45,.24-.2,.43-.45,.57-.75,.14-.3,.2-.63,.2-1.01,0-.45-.08-.83-.25-1.13-.16-.29-.37-.52-.62-.7-.23-.16-.48-.3-.75-.39-.23-.08-.44-.16-.64-.23-.17-.06-.31-.13-.41-.21-.02-.01-.03-.02-.03-.07-.01-.02,.07-.06,.33-.06,.15,0,.3,.01,.45,.04,.15,.03,.29,.07,.4,.11,.16,.05,.29,.1,.41,.16l.19,.09,.18-.1,.16-.09,.19-.11v-.22s.09-1.13,.09-1.13v-.14s-.07-.12-.07-.12l-.12-.17-.06-.08-.09-.04c-.15-.07-.31-.13-.48-.18-.13-.04-.31-.09-.5-.12-.2-.03-.41-.05-.64-.05h0Z"/>
      </g>
      <g>
        <path class="cls-1" d="M356.2,173.88c-.42,0-.82-.09-1.18-.27-.36-.18-.67-.43-.94-.74-.26-.31-.47-.68-.62-1.1-.15-.42-.22-.88-.22-1.36s.07-.95,.22-1.36c.14-.42,.35-.78,.62-1.09,.27-.31,.58-.55,.94-.72,.36-.18,.76-.27,1.18-.27s.82,.09,1.18,.27c.36,.17,.68,.42,.94,.73,.26,.31,.47,.67,.62,1.09,.14,.42,.22,.87,.22,1.35s-.07,.94-.22,1.36c-.15,.42-.35,.8-.62,1.1-.26,.31-.58,.56-.94,.74-.36,.18-.76,.27-1.18,.27Zm.01-5.15c-.16,0-.31,.04-.46,.12-.15,.08-.28,.19-.39,.34-.12,.15-.21,.33-.28,.54-.07,.21-.11,.44-.11,.68s.04,.48,.11,.69c.07,.21,.16,.39,.28,.55,.12,.15,.25,.26,.4,.35,.14,.08,.3,.12,.45,.12,.17,0,.31-.04,.45-.12,.15-.08,.28-.2,.39-.35,.11-.15,.21-.33,.27-.54,.07-.21,.1-.45,.1-.69s-.03-.48-.1-.69c-.07-.21-.16-.39-.27-.54-.11-.15-.24-.26-.38-.34-.14-.08-.29-.12-.46-.12Z"/>
        <path d="M356.2,167.18c.39,0,.76,.08,1.1,.25,.34,.16,.63,.39,.88,.68,.25,.29,.44,.63,.58,1.02,.14,.39,.21,.82,.21,1.28s-.07,.89-.21,1.29c-.14,.4-.33,.75-.58,1.04-.25,.29-.54,.52-.88,.69-.34,.17-.7,.25-1.1,.25s-.76-.08-1.09-.25c-.33-.17-.63-.4-.87-.69-.25-.29-.44-.64-.58-1.03-.14-.4-.21-.83-.21-1.3s.07-.9,.21-1.29,.33-.73,.58-1.02c.25-.29,.54-.51,.87-.67,.33-.16,.7-.25,1.09-.25m.01,5.15c.2,0,.38-.05,.55-.15,.17-.1,.32-.23,.45-.4,.13-.17,.23-.37,.3-.61,.07-.23,.11-.48,.11-.75s-.04-.52-.11-.75c-.07-.23-.17-.43-.3-.6-.13-.17-.28-.3-.45-.4-.17-.09-.35-.14-.55-.14s-.38,.05-.55,.14c-.17,.09-.33,.23-.46,.4-.13,.17-.24,.37-.31,.6-.08,.23-.12,.48-.12,.75s.04,.52,.12,.75c.08,.23,.18,.44,.31,.61,.13,.17,.28,.3,.46,.4,.17,.1,.36,.15,.55,.15m-.01-5.55c-.45,0-.88,.1-1.27,.29-.38,.19-.72,.45-1,.77-.28,.32-.5,.71-.66,1.15-.15,.44-.23,.92-.23,1.43s.08,.99,.23,1.43c.15,.44,.37,.83,.65,1.16,.28,.33,.62,.6,1,.79,.39,.19,.82,.29,1.27,.29s.88-.1,1.28-.29c.39-.19,.72-.46,1.01-.79,.28-.33,.5-.72,.65-1.17,.15-.44,.23-.92,.23-1.43s-.08-.98-.23-1.42c-.15-.44-.37-.83-.65-1.15-.28-.33-.62-.59-1.01-.78-.39-.19-.82-.29-1.27-.29h0Zm.01,5.15c-.13,0-.24-.03-.36-.09-.13-.07-.24-.17-.33-.29-.1-.13-.19-.3-.25-.49-.06-.19-.1-.4-.1-.62s.03-.43,.1-.62c.06-.19,.15-.35,.25-.48,.1-.13,.2-.22,.33-.29,.12-.06,.23-.09,.36-.09s.25,.03,.36,.09c.12,.07,.23,.16,.32,.29,.1,.13,.18,.29,.24,.48,.06,.19,.09,.4,.09,.63s-.03,.44-.09,.63c-.06,.19-.14,.35-.24,.48-.1,.13-.2,.22-.33,.29-.11,.06-.22,.09-.35,.09h0Z"/>
      </g>
      <g>
        <path class="cls-1" d="M362.22,173.88c-.39,0-.74-.07-1.05-.21-.32-.14-.59-.35-.81-.61-.22-.26-.39-.58-.51-.95-.12-.36-.18-.77-.18-1.21v-3.65l.23-.29h1.23l.24,.29v3.65c0,.39,.09,.7,.25,.91s.36,.3,.61,.3,.43-.1,.58-.29c.16-.21,.24-.52,.24-.91v-3.65l.23-.29h1.23l.24,.29v3.65c0,.44-.06,.85-.17,1.21-.12,.37-.28,.68-.5,.95-.22,.27-.49,.47-.8,.61-.31,.14-.66,.21-1.05,.21Z"/>
        <path d="M364.42,167.16l.13,.16v3.58c0,.42-.05,.81-.16,1.15-.11,.34-.26,.64-.46,.88-.2,.24-.44,.43-.73,.56-.29,.13-.61,.19-.97,.19s-.68-.06-.97-.19c-.29-.13-.54-.31-.74-.56-.2-.24-.36-.54-.47-.88-.11-.34-.17-.73-.17-1.15v-3.58l.12-.16h1.04l.13,.16v3.58c0,.44,.1,.79,.3,1.04,.2,.25,.45,.37,.76,.37s.55-.12,.74-.37c.19-.25,.28-.59,.28-1.04v-3.58l.12-.16h1.04m.19-.41h-1.43l-.12,.15-.12,.16-.09,.11v3.72c0,.35-.07,.62-.2,.79-.11,.15-.24,.21-.41,.21-.19,0-.32-.07-.45-.22-.14-.17-.21-.44-.21-.78v-3.73l-.09-.11-.13-.16-.12-.15h-1.43l-.12,.15-.12,.16-.09,.11v3.72c0,.46,.06,.89,.19,1.28,.13,.39,.31,.73,.55,1.01,.24,.29,.54,.51,.88,.67,.34,.15,.72,.23,1.14,.23s.8-.08,1.13-.23c.34-.15,.64-.38,.88-.67,.23-.28,.41-.62,.54-1.01,.12-.38,.18-.81,.18-1.27v-3.73l-.09-.11-.13-.16-.12-.15h0Z"/>
      </g>
      <g>
        <polygon class="cls-1" points="368.25 173.88 366.95 170.16 366.96 173.59 366.72 173.88 365.48 173.88 365.25 173.58 365.25 167.26 365.48 166.96 367.52 166.96 368.82 170.7 368.82 167.25 369.06 166.95 370.3 166.95 370.52 167.26 370.52 173.57 370.3 173.88 368.25 173.88"/>
        <path d="M370.2,167.16l.12,.17v6.18l-.12,.17h-1.8l-1.58-4.54h-.07v4.38s-.12,.16-.12,.16h-1.04l-.12-.16v-6.18l.12-.17h1.79l1.58,4.54h.07v-4.38l.13-.17h1.04m.21-.41h-1.45l-.12,.16-.13,.17-.09,.11v2.31l-.86-2.46-.1-.27h-2.29l-.12,.17-.12,.17-.08,.11v6.46l.09,.11,.12,.16,.12,.16h1.43l.12-.15,.13-.16,.09-.11v-.15s0-2.14,0-2.14l.85,2.43,.1,.27h2.3l.12-.17,.12-.17,.08-.11v-6.45l-.08-.11-.12-.17-.12-.17h0Z"/>
      </g>
      <g>
        <path class="cls-1" d="M371.25,173.88l-.23-.3v-6.32l.23-.3h2.17c.43,0,.83,.09,1.19,.26,.35,.17,.67,.41,.92,.72,.26,.3,.46,.67,.59,1.1,.14,.42,.21,.89,.21,1.39s-.07,.97-.21,1.39c-.14,.42-.34,.79-.6,1.09-.26,.31-.58,.55-.94,.72s-.77,.26-1.21,.26h-2.12Zm2.2-1.73c.17,0,.31-.04,.45-.11,.14-.08,.26-.19,.36-.33,.1-.15,.19-.33,.25-.55,.06-.22,.09-.46,.09-.73s-.03-.52-.1-.73c-.06-.21-.15-.4-.26-.55-.11-.15-.24-.26-.38-.34-.15-.08-.3-.12-.47-.12h-.66v3.46h.72Z"/>
        <path d="M373.42,167.16c.4,0,.77,.08,1.1,.24,.33,.16,.61,.38,.86,.67,.24,.29,.43,.63,.56,1.03,.13,.4,.2,.84,.2,1.33s-.07,.92-.2,1.32c-.13,.4-.32,.74-.56,1.03-.24,.29-.53,.51-.87,.67s-.71,.24-1.12,.24h-2.02l-.12-.17v-6.18l.12-.17h2.07m-.9,5.19h.92c.2,0,.38-.05,.55-.14,.17-.09,.31-.22,.43-.4,.12-.17,.21-.37,.28-.61,.07-.24,.1-.5,.1-.78s-.04-.56-.11-.79c-.07-.24-.17-.44-.29-.61-.13-.17-.28-.31-.45-.4-.17-.09-.36-.14-.57-.14h-.87v3.87m.9-5.6h-2.27l-.12,.17-.12,.17-.08,.11v6.45l.08,.11,.12,.17,.12,.17h2.22c.47,0,.9-.09,1.29-.28,.39-.18,.73-.44,1.01-.78,.27-.33,.49-.72,.64-1.16,.15-.44,.22-.93,.22-1.45s-.07-1.01-.22-1.45c-.15-.45-.36-.84-.63-1.16-.28-.33-.61-.59-.99-.77-.38-.18-.81-.28-1.28-.28h0Zm-.49,2.14h.46c.14,0,.26,.03,.38,.09,.12,.06,.22,.16,.31,.28,.1,.14,.18,.3,.23,.49,.06,.2,.09,.42,.09,.67s-.03,.47-.09,.67c-.05,.19-.13,.36-.22,.49-.08,.12-.18,.21-.29,.27-.11,.06-.22,.09-.35,.09h-.52v-3.05h0Z"/>
      </g>
      <g>
        <polygon class="cls-1" points="386.97 173.88 386.73 173.58 386.73 167.26 386.97 166.96 388.21 166.96 388.43 167.26 388.43 172.09 390.37 172.09 390.6 172.39 390.6 173.58 390.37 173.88 386.97 173.88"/>
        <path d="M388.11,167.16l.12,.17v4.96h2.04l.12,.17v1.05l-.12,.17h-3.2l-.13-.17v-6.18l.13-.17h1.04m.21-.41h-1.45l-.12,.16-.13,.17-.09,.11v6.46l.09,.11,.13,.17,.12,.16h3.61l.12-.17,.12-.17,.08-.11v-1.32l-.08-.11-.12-.17-.12-.17h-1.84v-4.68l-.08-.11-.12-.17-.12-.17h0Z"/>
      </g>
      <g>
        <polygon class="cls-1" points="391.32 173.88 391.09 173.58 391.09 167.26 391.32 166.96 392.56 166.96 392.8 167.26 392.8 173.58 392.56 173.88 391.32 173.88"/>
        <path d="M392.46,167.16l.13,.17v6.18l-.13,.17h-1.04l-.12-.17v-6.18l.12-.17h1.04m.2-.41h-1.45l-.12,.17-.12,.17-.08,.11v6.45l.08,.11,.12,.17,.12,.17h1.45l.12-.16,.13-.17,.09-.11v-6.46l-.09-.11-.13-.17-.12-.16h0Z"/>
      </g>
      <g>
        <path class="cls-1" d="M395.94,173.95c-.39,0-.75-.09-1.07-.26-.32-.17-.61-.41-.84-.72-.23-.31-.41-.68-.54-1.1-.13-.42-.19-.9-.19-1.42,0-.49,.08-.95,.22-1.37,.15-.42,.36-.8,.64-1.11,.27-.32,.61-.57,1-.74,.39-.18,.82-.27,1.3-.27,.61,0,1.18,.11,1.68,.33l.06,.03,.18,.3-.13,1.37-.36,.19-.1-.06c-.2-.12-.42-.21-.66-.27-.24-.06-.47-.09-.7-.09-.21,0-.39,.04-.56,.13-.17,.09-.32,.2-.44,.35-.12,.15-.22,.33-.29,.54-.07,.21-.11,.44-.11,.69,0,.28,.03,.53,.1,.75,.06,.21,.16,.4,.27,.54,.11,.14,.24,.25,.4,.32,.16,.07,.33,.11,.52,.11,.15,0,.28-.03,.42-.08,.1-.04,.2-.09,.28-.14v-.63h-.74l-.21-.25v-1.06l.19-.24h2.22l.24,.3v3.51l-.24,.3h-1.21l-.21-.26c-.09,.07-.2,.13-.31,.18-.24,.1-.51,.15-.81,.15Z"/>
        <path d="M396.46,167.16c.59,0,1.12,.1,1.6,.31l.11,.18-.12,1.19-.16,.08c-.22-.13-.45-.23-.71-.3-.25-.07-.51-.1-.75-.1s-.46,.05-.66,.15c-.2,.1-.37,.23-.51,.4-.14,.17-.25,.37-.32,.6-.08,.23-.12,.49-.12,.76,0,.3,.04,.57,.11,.81s.17,.44,.31,.61c.13,.17,.29,.29,.47,.38s.38,.13,.61,.13c.17,0,.33-.03,.49-.09,.16-.06,.29-.14,.41-.22v-.94h-.85l-.1-.12v-.91l.09-.11h2.02l.13,.17v3.37l-.13,.17h-1.01l-.12-.16v-.31h-.07c-.12,.18-.29,.31-.5,.41-.21,.09-.46,.14-.73,.14-.35,0-.68-.08-.98-.24-.3-.16-.56-.38-.77-.66-.22-.29-.38-.63-.51-1.04-.12-.41-.18-.86-.18-1.36,0-.47,.07-.9,.21-1.3,.14-.4,.34-.75,.6-1.04,.26-.3,.57-.53,.93-.69,.36-.17,.77-.25,1.22-.25m0-.41c-.5,0-.97,.1-1.38,.29-.42,.19-.78,.46-1.07,.79-.29,.33-.52,.73-.67,1.17-.16,.44-.23,.92-.23,1.44,0,.54,.07,1.04,.2,1.48,.13,.45,.33,.84,.57,1.17,.25,.33,.56,.6,.91,.78,.36,.19,.75,.28,1.17,.28,.33,0,.63-.06,.89-.17,.07-.03,.13-.06,.19-.09l.03,.04,.12,.16h1.41l.12-.15,.13-.17,.09-.11v-3.65l-.09-.11-.13-.17-.12-.15h-2.42l-.12,.16-.09,.11-.09,.11v1.2l.1,.11,.1,.12,.12,.14h.63v.31s-.1,.05-.15,.07c-.11,.04-.22,.06-.34,.06-.16,0-.31-.03-.43-.09-.13-.06-.23-.15-.32-.26-.1-.13-.18-.28-.24-.47-.06-.2-.09-.43-.09-.69,0-.23,.03-.44,.1-.63,.06-.19,.15-.34,.25-.47,.1-.13,.22-.22,.37-.29,.14-.07,.3-.11,.47-.11,.21,0,.43,.03,.65,.09,.22,.06,.42,.14,.61,.25l.19,.11,.2-.1,.16-.08,.2-.1,.02-.22,.12-1.19v-.13s-.05-.11-.05-.11l-.11-.18-.07-.11-.12-.05c-.53-.23-1.12-.35-1.76-.35h0Z"/>
      </g>
      <g>
        <polygon class="cls-1" points="402.86 173.89 402.62 173.59 402.62 171.33 400.92 171.33 400.92 173.58 400.69 173.89 399.45 173.89 399.22 173.59 399.22 167.26 399.45 166.96 400.69 166.96 400.92 167.26 400.92 169.62 402.62 169.62 402.62 167.26 402.86 166.96 404.1 166.96 404.33 167.26 404.33 173.58 404.1 173.89 402.86 173.89"/>
        <path d="M404,167.16l.12,.17v6.18l-.12,.17h-1.04l-.13-.17v-2.39h-2.11v2.39l-.12,.17h-1.04l-.13-.17v-6.18l.13-.17h1.04l.12,.17v2.5h2.11v-2.5l.13-.17h1.04m.21-.41h-1.45l-.12,.16-.13,.17-.09,.11v2.23h-1.29v-2.22l-.08-.11-.12-.17-.12-.17h-1.45l-.12,.16-.13,.17-.09,.11v6.47l.09,.11,.13,.17,.12,.16h1.45l.12-.17,.12-.17,.08-.11v-2.12h1.29v2.13l.09,.11,.13,.17,.12,.16h1.45l.12-.17,.12-.17,.08-.11v-6.45l-.08-.11-.12-.17-.12-.17h0Z"/>
      </g>
      <g>
        <polygon class="cls-1" points="406.58 173.89 406.35 173.6 406.35 168.72 405.05 168.72 404.83 168.41 404.83 167.26 405.05 166.96 409.35 166.96 409.59 167.26 409.59 168.42 409.35 168.72 408.05 168.72 408.05 173.6 407.81 173.89 406.58 173.89"/>
        <path d="M409.25,167.16l.13,.17v1.02l-.13,.17h-1.4v5.01l-.13,.16h-1.04l-.12-.16v-5.01h-1.4l-.12-.17v-1.02l.12-.17h4.1m.2-.41h-4.5l-.12,.17-.12,.17-.08,.11v1.28l.08,.11,.12,.17,.12,.17h1.19v4.74l.09,.11,.12,.16,.12,.16h1.43l.12-.15,.13-.16,.09-.11v-4.75h1.19l.12-.16,.13-.17,.09-.11v-1.3l-.09-.11-.13-.17-.12-.16h0Z"/>
      </g>
      <g>
        <path class="cls-1" d="M380.74,173.91c-1.25,0-2.11-.85-2.11-2.07,0-.74,.4-1.42,1.03-1.77-.35-.47-.48-.84-.48-1.33,0-1.32,1.02-1.79,1.89-1.79s1.77,.54,1.77,1.74c0,.66-.32,1.25-.9,1.67l.38,.46,.43-.69h1.81l-1.26,1.93,1.38,1.69h-2l-.36-.48c-.43,.43-.94,.64-1.57,.64Zm-.1-2.75c-.24,.18-.38,.33-.38,.61,0,.35,.27,.56,.52,.56,.19,0,.32-.04,.57-.27l-.72-.9Zm.4-2.76c-.19,0-.32,.15-.32,.38,0,.14,.08,.3,.28,.52,.25-.19,.38-.37,.38-.53,0-.22-.13-.36-.33-.36Z"/>
        <path d="M381.06,167.15c.84,0,1.57,.49,1.57,1.53,0,.64-.34,1.23-1,1.62l.69,.86,.53-.83h1.33l-1.14,1.75,1.2,1.47h-1.47l-.45-.59c-.45,.54-.95,.75-1.59,.75-1.08,0-1.91-.72-1.91-1.87,0-.72,.43-1.41,1.14-1.7-.47-.57-.59-.93-.59-1.4,0-1.18,.89-1.59,1.68-1.59m-.09,2.42c.39-.26,.61-.53,.61-.8,0-.33-.21-.56-.53-.56s-.53,.24-.53,.58c0,.23,.14,.46,.45,.78m-.18,2.97c.3,0,.5-.11,.85-.46l-.95-1.2c-.3,.22-.62,.42-.62,.89s.34,.77,.72,.77m.27-5.8c-1.04,0-2.09,.62-2.09,1.99,0,.47,.11,.84,.4,1.27-.59,.41-.94,1.09-.94,1.83,0,1.32,.97,2.27,2.32,2.27,.61,0,1.11-.17,1.54-.54l.17,.22,.12,.16h2.53l-.54-.66-1.02-1.24,.97-1.5,.41-.63h-2.28c.26-.37,.4-.79,.4-1.24,0-1.16-.79-1.94-1.97-1.94h0Zm-.04,2.27c-.07-.1-.1-.17-.1-.23,0-.07,.02-.18,.12-.18,.04,0,.13,0,.13,.16,0,.05-.04,.14-.15,.24h0Zm1.19,1.37c.13-.11,.25-.23,.35-.36l-.06,.09-.22,.35-.07-.08h0Zm-1.43,1.76c-.16,0-.32-.14-.32-.36,0-.14,.04-.23,.15-.33l.47,.59c-.13,.09-.2,.1-.29,.1h0Z"/>
      </g>
    </g>
    <g>
      <circle class="cls-11" cx="71.07" cy="150" r="47.02"/>
      <circle class="cls-13" cx="71.07" cy="150" r="47.78"/>
      <g>
        <line class="cls-5" x1="71.05" y1="130.32" x2="71.05" y2="156.7"/>
        <line class="cls-2" x1="73.9" y1="137.31" x2="73.9" y2="149.7"/>
        <line class="cls-2" x1="68.19" y1="137.31" x2="68.19" y2="149.7"/>
        <line class="cls-5" x1="103.5" y1="160.04" x2="103.5" y2="126.97"/>
        <line class="cls-2" x1="106.36" y1="136.11" x2="106.36" y2="150.91"/>
        <line class="cls-2" x1="100.65" y1="133.57" x2="100.65" y2="153.44"/>
        <line class="cls-7" x1="41.46" y1="133.57" x2="41.46" y2="153.44"/>
        <line class="cls-3" x1="38.64" y1="126.98" x2="38.61" y2="160.03"/>
        <line class="cls-2" x1="35.78" y1="136.11" x2="35.78" y2="150.91"/>
        <g>
          <path class="cls-8" d="M61.35,126.3h4.35v34.42h-4.35v-23.41l-5.23,11.65h-2.59l-5.23-11.65v23.41h-4.35v-34.42h4.35l6.53,14.58,6.53-14.58Z"/>
          <path class="cls-8" d="M93.81,126.3h4.35v34.42h-4.35v-23.41l-5.23,11.65h-2.59l-5.23-11.65v23.41h-4.35v-34.42h4.35l6.53,14.58,6.53-14.58Z"/>
        </g>
      </g>
      <g>
        <g>
          <polygon class="cls-1" points="38.74 173.89 38.52 173.59 38.52 170.33 37.86 171.87 36.55 171.87 35.91 170.35 35.91 173.6 35.68 173.89 34.45 173.89 34.23 173.59 34.23 167.28 34.45 166.99 36.05 166.99 37.21 169.6 38.36 166.99 39.98 166.99 40.2 167.28 40.2 173.6 39.98 173.89 38.74 173.89"/>
          <path d="M39.88,167.18l.13,.17v6.18l-.13,.17h-1.04l-.12-.17v-3.99h-.07l-.92,2.13h-1.05l-.91-2.13h-.07v3.99s-.12,.17-.12,.17h-1.04l-.12-.17v-6.18l.12-.17h1.38l1.26,2.83h.06l1.25-2.83h1.39m.19-.39h-1.83l-.1,.23-.92,2.09-.93-2.09-.1-.23h-1.83l-.12,.16-.12,.17-.08,.1v6.44l.08,.1,.12,.17,.12,.16h1.43l.12-.15,.13-.17,.08-.11v-.13s0-2.22,0-2.22l.22,.52,.1,.24h1.56l.1-.23,.24-.56v2.39l.08,.1,.12,.17,.12,.16h1.43l.12-.15,.13-.17,.08-.11v-6.45l-.08-.11-.13-.17-.12-.15h0Z"/>
        </g>
        <g>
          <path class="cls-1" d="M45.17,173.89l-.19-.26-.32-1.01h-1.92s-.31,.98-.31,.98l-.15,.21-.06,.07h-1.28l-.23-.31,2.04-6.34,.16-.2,.06-.06h1.5l.17,.17,2.06,6.41-.26,.33h-1.28Zm-.98-2.85l-.5-1.82-.5,1.82h1Z"/>
          <path d="M44.41,167.18l.12,.11,1.98,6.23-.14,.18h-1.09l-.13-.18-.33-1.09h-2.21s-.35,1.12-.35,1.12l-.12,.15h-1.08l-.11-.15,2.01-6.25,.12-.12h1.34m-1.46,4.06h1.5l-.68-2.48h-.15l-.68,2.48m1.62-4.45h-1.66l-.11,.12-.12,.12-.06,.06-.03,.09-2.01,6.25-.06,.19,.12,.16,.11,.15,.12,.16h1.47l.12-.15,.12-.15,.04-.06,.02-.07,.26-.85h1.63s.25,.82,.25,.82l.02,.06,.04,.05,.13,.18,.12,.16h1.48l.12-.15,.14-.18,.13-.16-.06-.2-1.98-6.23-.03-.09-.07-.07-.12-.11-.11-.11h0Zm-1.11,4.06l.24-.89,.24,.89h-.49Z"/>
        </g>
        <g>
          <polygon class="cls-1" points="48.05 173.89 47.82 173.61 47.82 168.73 46.52 168.73 46.3 168.43 46.3 167.28 46.52 166.99 50.81 166.99 51.04 167.28 51.04 168.43 50.81 168.73 49.5 168.73 49.5 173.61 49.27 173.89 48.05 173.89"/>
          <path d="M50.71,167.18l.13,.17v1.02l-.13,.17h-1.4v5.01l-.13,.16h-1.04l-.12-.16v-5.01h-1.4l-.12-.17v-1.02l.12-.17h4.09m.19-.39h-4.48l-.12,.16-.12,.17-.08,.1v1.27l.08,.1,.12,.17,.12,.16h1.2v4.75l.08,.11,.12,.16,.12,.15h1.41l.12-.14,.13-.16,.09-.11v-4.76h1.2l.12-.15,.13-.17,.08-.11v-1.28l-.08-.11-.13-.17-.12-.15h0Z"/>
        </g>
        <g>
          <polygon class="cls-1" points="53.32 173.89 53.1 173.61 53.1 168.73 51.8 168.73 51.58 168.43 51.58 167.28 51.8 166.99 56.08 166.99 56.31 167.28 56.31 168.43 56.08 168.73 54.78 168.73 54.78 173.61 54.55 173.89 53.32 173.89"/>
          <path d="M55.99,167.18l.13,.17v1.02l-.13,.17h-1.4v5.01l-.13,.16h-1.04l-.12-.16v-5.01h-1.4l-.12-.17v-1.02l.12-.17h4.09m.19-.39h-4.48l-.12,.16-.12,.17-.08,.1v1.27l.08,.1,.12,.17,.12,.16h1.2v4.75l.08,.11,.12,.16,.12,.15h1.41l.12-.14,.13-.16,.09-.11v-4.76h1.2l.12-.15,.13-.17,.08-.11v-1.28l-.08-.11-.13-.17-.12-.15h0Z"/>
        </g>
        <g>
          <polygon class="cls-1" points="57.08 173.89 56.86 173.59 56.86 167.28 57.08 166.99 58.31 166.99 58.54 167.28 58.54 173.6 58.31 173.89 57.08 173.89"/>
          <path d="M58.21,167.18l.13,.17v6.18l-.13,.17h-1.04l-.12-.17v-6.18l.12-.17h1.04m.19-.39h-1.43l-.12,.16-.12,.17-.08,.1v6.44l.08,.1,.12,.17,.12,.16h1.43l.12-.15,.13-.17,.08-.11v-6.45l-.08-.11-.13-.17-.12-.15h0Z"/>
        </g>
        <g>
          <path class="cls-1" d="M63.51,173.89l-.19-.26-.32-1.01h-1.92s-.31,.98-.31,.98l-.15,.21-.06,.07h-1.28l-.23-.31,2.04-6.34,.16-.2,.06-.06h1.5l.17,.17,2.06,6.41-.26,.33h-1.28Zm-.98-2.85l-.5-1.82-.5,1.82h.99Z"/>
          <path d="M62.74,167.18l.12,.11,1.98,6.23-.14,.18h-1.09l-.13-.18-.33-1.09h-2.21s-.35,1.12-.35,1.12l-.12,.15h-1.08l-.11-.15,2.01-6.25,.12-.12h1.34m-1.46,4.06h1.5l-.68-2.48h-.15l-.68,2.48m1.62-4.45h-1.66l-.11,.12-.12,.12-.06,.06-.03,.09-2.01,6.25-.06,.19,.12,.16,.11,.15,.12,.16h1.47l.12-.15,.12-.15,.04-.06,.02-.07,.26-.85h1.63s.25,.82,.25,.82l.02,.06,.04,.05,.13,.18,.12,.16h1.48l.12-.15,.14-.18,.13-.16-.06-.2-1.98-6.23-.03-.09-.07-.07-.12-.11-.11-.11h0Zm-1.11,4.06l.24-.89,.24,.89h-.49Z"/>
        </g>
        <g>
          <polygon class="cls-1" points="71.36 173.88 71.14 173.59 71.14 170.33 70.47 171.86 69.17 171.86 68.52 170.34 68.52 173.59 68.29 173.88 67.06 173.88 66.84 173.59 66.84 167.28 67.06 166.98 68.67 166.98 69.83 169.59 70.98 166.98 72.59 166.98 72.82 167.27 72.82 173.59 72.59 173.88 71.36 173.88"/>
          <path d="M72.49,167.17l.13,.17v6.18l-.13,.17h-1.04l-.12-.17v-3.99h-.07l-.92,2.13h-1.05l-.91-2.13h-.07v3.99s-.12,.17-.12,.17h-1.04l-.12-.17v-6.18l.12-.17h1.38l1.26,2.83h.06l1.25-2.83h1.39m.19-.39h-1.83l-.1,.23-.92,2.09-.93-2.09-.1-.23h-1.83l-.12,.16-.12,.17-.08,.1v6.44l.08,.1,.12,.17,.12,.16h1.43l.12-.15,.13-.17,.08-.11v-.13s0-2.22,0-2.22l.22,.52,.1,.24h1.56l.1-.23,.24-.56v2.39l.08,.1,.12,.17,.12,.16h1.43l.12-.15,.13-.17,.08-.11v-6.45l-.08-.11-.13-.17-.12-.15h0Z"/>
        </g>
        <g>
          <path class="cls-1" d="M77.79,173.88l-.19-.26-.32-1.01h-1.92s-.31,.98-.31,.98l-.15,.21-.06,.07h-1.28l-.23-.31,2.04-6.34,.16-.2,.06-.06h1.5l.17,.17,2.06,6.41-.26,.33h-1.28Zm-.98-2.85l-.5-1.82-.5,1.82h.99Z"/>
          <path d="M77.02,167.17l.12,.11,1.98,6.23-.14,.18h-1.09l-.13-.18-.33-1.09h-2.21s-.35,1.12-.35,1.12l-.12,.15h-1.08l-.11-.15,2.01-6.25,.12-.12h1.34m-1.46,4.06h1.5l-.68-2.48h-.15l-.68,2.48m1.62-4.45h-1.66l-.11,.12-.12,.12-.06,.06-.03,.09-2.01,6.25-.06,.19,.12,.16,.11,.15,.12,.16h1.47l.12-.15,.12-.15,.04-.06,.02-.07,.26-.85h1.63s.25,.82,.25,.82l.02,.06,.04,.05,.13,.18,.12,.16h1.48l.12-.15,.14-.18,.13-.16-.06-.2-1.98-6.23-.03-.09-.07-.07-.12-.11-.11-.11h0Zm-1.11,4.06l.24-.89,.24,.89h-.49Z"/>
        </g>
        <g>
          <polygon class="cls-1" points="80.07 173.88 79.85 173.59 79.85 167.28 80.07 166.98 81.3 166.98 81.53 167.27 81.53 173.59 81.3 173.88 80.07 173.88"/>
          <path d="M81.21,167.17l.13,.17v6.18l-.13,.17h-1.04l-.12-.17v-6.18l.12-.17h1.04m.19-.39h-1.43l-.12,.16-.12,.17-.08,.1v6.44l.08,.1,.12,.17,.12,.16h1.43l.12-.15,.13-.17,.08-.11v-6.45l-.08-.11-.13-.17-.12-.15h0Z"/>
        </g>
        <g>
          <path class="cls-1" d="M85.02,173.88c-.42,0-.82-.09-1.18-.27-.36-.18-.67-.43-.93-.74-.26-.31-.47-.68-.61-1.1-.14-.42-.22-.88-.22-1.36s.07-.94,.22-1.36,.35-.78,.61-1.08c.26-.3,.58-.55,.93-.72,.36-.18,.75-.27,1.17-.27s.82,.09,1.18,.27c.36,.18,.67,.42,.94,.73,.26,.31,.47,.67,.61,1.09,.14,.42,.22,.87,.22,1.35s-.07,.94-.22,1.36c-.15,.42-.35,.79-.61,1.1-.26,.31-.58,.56-.94,.74-.36,.18-.76,.27-1.18,.27Zm.01-5.16c-.16,0-.31,.04-.46,.12-.15,.08-.28,.2-.4,.34-.12,.15-.21,.34-.28,.55-.07,.21-.11,.44-.11,.69s.04,.48,.11,.69c.07,.21,.17,.4,.28,.55,.12,.15,.25,.27,.4,.35,.15,.08,.3,.12,.46,.12s.31-.04,.46-.12c.15-.08,.27-.2,.39-.35,.11-.15,.21-.34,.27-.55,.07-.21,.1-.45,.1-.7s-.03-.48-.1-.69c-.07-.21-.16-.39-.27-.54-.11-.15-.24-.26-.39-.34-.14-.08-.29-.12-.46-.12Z"/>
          <path d="M85.02,167.17c.39,0,.76,.08,1.09,.25,.34,.16,.63,.39,.88,.68,.25,.29,.44,.63,.58,1.03,.14,.4,.21,.82,.21,1.29s-.07,.89-.21,1.3c-.14,.4-.33,.75-.58,1.04-.25,.29-.54,.52-.88,.69-.34,.17-.7,.25-1.09,.25s-.76-.08-1.09-.25c-.33-.17-.62-.4-.87-.69-.25-.29-.44-.64-.58-1.04-.14-.4-.21-.83-.21-1.3s.07-.9,.21-1.3c.14-.4,.33-.74,.58-1.02s.54-.51,.87-.68c.33-.16,.7-.25,1.09-.25m.01,5.16c.2,0,.38-.05,.55-.15,.17-.1,.32-.23,.45-.4,.13-.17,.23-.37,.3-.61,.07-.23,.11-.49,.11-.75s-.04-.52-.11-.75c-.07-.23-.17-.43-.3-.6-.13-.17-.28-.3-.45-.4-.17-.09-.35-.14-.55-.14s-.38,.05-.55,.14c-.17,.09-.33,.23-.46,.4-.13,.17-.24,.37-.31,.6-.08,.23-.12,.48-.12,.75s.04,.52,.12,.75,.18,.44,.31,.61,.28,.3,.46,.4c.17,.1,.36,.15,.55,.15m-.01-5.54c-.45,0-.87,.1-1.26,.29-.38,.19-.71,.45-.99,.77-.28,.32-.5,.71-.65,1.15-.15,.44-.23,.91-.23,1.42s.08,.99,.23,1.43c.15,.44,.37,.83,.65,1.16,.28,.33,.61,.6,.99,.78,.39,.19,.81,.29,1.26,.29s.88-.1,1.27-.29c.38-.19,.72-.45,1-.79,.28-.33,.49-.72,.65-1.16,.15-.44,.23-.92,.23-1.42s-.08-.98-.23-1.41c-.15-.44-.37-.83-.65-1.15-.28-.33-.62-.59-1-.78-.39-.19-.81-.29-1.26-.29h0Zm.01,5.16c-.13,0-.25-.03-.36-.1-.13-.07-.24-.17-.34-.3-.1-.14-.19-.3-.25-.49-.06-.19-.1-.41-.1-.63s.03-.44,.1-.63c.06-.19,.15-.35,.25-.49,.1-.13,.21-.22,.34-.29,.12-.06,.24-.1,.37-.1s.25,.03,.36,.09c.12,.07,.23,.16,.33,.29,.1,.13,.18,.3,.24,.49,.06,.19,.09,.41,.09,.63s-.03,.44-.09,.64c-.06,.19-.14,.35-.24,.49-.1,.13-.21,.23-.33,.3-.11,.06-.23,.1-.36,.1h0Z"/>
        </g>
        <g>
          <path class="cls-1" d="M91.65,173.88l-.88-1.83h-.58v1.55l-.22,.29h-1.23l-.23-.28v-6.33l.23-.3h2.24c.73,0,1.31,.22,1.71,.65,.4,.43,.6,1.04,.6,1.82,0,.53-.08,.99-.25,1.36-.15,.33-.35,.59-.61,.79l1.02,1.94-.26,.34h-1.53Zm-.68-3.53c.22,0,.39-.07,.51-.2,.12-.14,.18-.36,.18-.66s-.06-.5-.18-.64c-.12-.13-.28-.19-.51-.19h-.79v1.69h.79Z"/>
          <path d="M90.98,167.17c.68,0,1.2,.2,1.57,.59,.37,.39,.55,.95,.55,1.69,0,.5-.08,.93-.24,1.28-.16,.35-.39,.62-.69,.81l1.05,1.98-.12,.17h-1.32l-.88-1.83h-.9v1.68l-.12,.16h-1.04l-.13-.16v-6.19l.13-.17h2.14m-.98,3.38h.98c.28,0,.5-.09,.65-.27,.16-.18,.23-.44,.23-.79s-.08-.6-.23-.77c-.16-.17-.37-.26-.65-.26h-.98v2.08m.98-3.77h-2.33l-.12,.15-.13,.17-.08,.11v6.47l.09,.11,.13,.16,.12,.14h1.41l.12-.15,.12-.16,.08-.11v-1.42h.27l.77,1.61,.11,.22h1.76l.12-.16,.12-.17,.14-.2-.11-.22-.89-1.69c.23-.21,.41-.46,.54-.76,.18-.4,.27-.88,.27-1.44,0-.83-.22-1.49-.65-1.95-.44-.47-1.06-.71-1.85-.71h0Zm-.59,2.08h.59c.22,0,.32,.07,.37,.13,.11,.12,.13,.34,.13,.51,0,.25-.05,.43-.14,.53-.05,.06-.14,.13-.36,.13h-.59v-1.3h0Z"/>
        </g>
        <g>
          <path class="cls-1" d="M98.38,173.88l-.19-.26-.32-1.01h-1.92s-.31,.98-.31,.98l-.15,.21-.06,.07h-1.28l-.23-.31,2.04-6.34,.16-.2,.06-.06h1.5l.17,.17,2.06,6.41-.26,.33h-1.28Zm-.98-2.85l-.5-1.82-.5,1.82h.99Z"/>
          <path d="M97.61,167.17l.12,.11,1.98,6.23-.14,.18h-1.09l-.13-.18-.33-1.09h-2.21s-.35,1.12-.35,1.12l-.12,.15h-1.08l-.11-.15,2.01-6.25,.12-.12h1.34m-1.46,4.06h1.5l-.68-2.48h-.15l-.68,2.48m1.62-4.45h-1.66l-.11,.12-.12,.12-.06,.06-.03,.09-2.01,6.25-.06,.19,.12,.16,.11,.15,.12,.16h1.47l.12-.15,.12-.15,.04-.06,.02-.07,.26-.85h1.63s.25,.82,.25,.82l.02,.06,.04,.05,.13,.18,.12,.16h1.48l.12-.15,.14-.18,.13-.16-.06-.2-1.98-6.23-.03-.09-.07-.07-.12-.11-.11-.11h0Zm-1.11,4.06l.24-.89,.24,.89h-.49Z"/>
        </g>
        <g>
          <polygon class="cls-1" points="103.43 173.88 102.12 170.12 102.12 173.6 101.89 173.88 100.66 173.88 100.44 173.6 100.44 167.28 100.66 166.98 102.68 166.98 104 170.77 104 167.26 104.23 166.97 105.46 166.97 105.68 167.27 105.68 173.59 105.46 173.88 103.43 173.88"/>
          <path d="M105.37,167.16l.12,.17v6.19l-.12,.17h-1.8l-1.58-4.54h-.07v4.39s-.12,.16-.12,.16h-1.04l-.12-.16v-6.19l.12-.17h1.79l1.58,4.54h.07v-4.39l.13-.17h1.04m.2-.39h-1.43l-.12,.15-.13,.17-.08,.11v2.42l-.89-2.57-.09-.26h-2.26l-.12,.16-.12,.17-.08,.1v6.45l.08,.11,.12,.16,.12,.15h1.41l.12-.14,.13-.16,.09-.11v-.14s0-2.26,0-2.26l.88,2.54,.09,.26h2.28l.12-.16,.12-.17,.08-.1v-6.45l-.08-.1-.12-.17-.12-.16h0Z"/>
        </g>
        <g>
          <polygon class="cls-1" points="106.44 173.88 106.23 173.59 106.23 167.28 106.44 166.98 107.68 166.98 107.91 167.27 107.91 173.59 107.68 173.88 106.44 173.88"/>
          <path d="M107.58,167.17l.13,.17v6.18l-.13,.17h-1.04l-.12-.17v-6.18l.12-.17h1.04m.19-.39h-1.43l-.12,.16-.12,.17-.08,.1v6.44l.08,.1,.12,.17,.12,.16h1.43l.12-.15,.13-.17,.08-.11v-6.45l-.08-.11-.13-.17-.12-.15h0Z"/>
        </g>
      </g>
    </g>
    <g>
      <circle class="cls-12" cx="173.69" cy="150" r="47.02"/>
      <circle class="cls-10" cx="173.69" cy="150" r="47.78"/>
      <g>
        <line class="cls-6" x1="173.67" y1="130.3" x2="173.67" y2="156.68"/>
        <line class="cls-9" x1="176.52" y1="137.29" x2="176.52" y2="149.69"/>
        <line class="cls-9" x1="170.81" y1="137.29" x2="170.81" y2="149.69"/>
        <line class="cls-6" x1="206.13" y1="160.03" x2="206.13" y2="126.95"/>
        <line class="cls-9" x1="208.98" y1="136.09" x2="208.98" y2="150.89"/>
        <line class="cls-9" x1="203.28" y1="133.55" x2="203.28" y2="153.42"/>
        <line class="cls-4" x1="144.08" y1="133.55" x2="144.08" y2="153.42"/>
        <path class="cls-1" d="M163.61,125.98h4.35v35.03h-4.35v-23.82l-5.23,11.86h-2.59l-5.23-11.86v23.82h-4.35v-35.03h4.35l6.53,14.84,6.53-14.84Z"/>
        <line class="cls-6" x1="141.26" y1="126.97" x2="141.23" y2="160.01"/>
        <line class="cls-9" x1="138.4" y1="136.09" x2="138.4" y2="150.89"/>
        <path class="cls-14" d="M164.32,125.98h4.35v35.03h-4.35v-23.82l-5.23,11.86h-2.59l-5.23-11.86v23.82h-4.35v-35.03h4.35l6.53,14.84,6.53-14.84Z"/>
        <path class="cls-14" d="M196.78,125.98h4.35v35.03h-4.35v-23.82l-5.23,11.86h-2.59l-5.23-11.86v23.82h-4.35v-35.03h4.35l6.53,14.84,6.53-14.84Z"/>
        <path class="cls-1" d="M196.07,125.98h4.35v35.03h-4.35v-23.82l-5.23,11.86h-2.59l-5.23-11.86v23.82h-4.35v-35.03h4.35l6.53,14.84,6.53-14.84Z"/>
      </g>
      <path class="cls-1" d="M142.63,167.14v6.55l-.13,.18h-1.04l-.12-.18v-4.22h-.07l-.92,2.26h-1.05l-.91-2.26h-.07v4.22s-.12,.18-.12,.18h-1.04l-.12-.18v-6.55l.12-.18h1.38l1.26,3h.06l1.25-3h1.39l.13,.18Z"/>
      <path class="cls-1" d="M149.12,173.68l-.14,.19h-1.09l-.13-.19-.33-1.15h-2.21s-.35,1.18-.35,1.18l-.12,.16h-1.08l-.11-.16,2.01-6.62,.12-.13h1.34l.12,.12,1.98,6.6Zm-2.05-2.42l-.68-2.62h-.15l-.68,2.62h1.5Z"/>
      <path class="cls-1" d="M153.46,167.14v1.08l-.13,.18h-1.4v5.31l-.13,.17h-1.04l-.12-.17v-5.31h-1.4l-.12-.18v-1.08l.12-.18h4.09l.13,.18Z"/>
      <path class="cls-1" d="M158.74,167.14v1.08l-.13,.18h-1.4v5.31l-.13,.17h-1.04l-.12-.17v-5.31h-1.4l-.12-.18v-1.08l.12-.18h4.09l.13,.18Z"/>
      <path class="cls-1" d="M160.97,167.14v6.55l-.13,.18h-1.04l-.12-.18v-6.55l.12-.18h1.04l.13,.18Z"/>
      <path class="cls-1" d="M167.46,173.68l-.14,.19h-1.09l-.13-.19-.33-1.15h-2.21s-.35,1.18-.35,1.18l-.12,.16h-1.08l-.11-.16,2.01-6.62,.12-.13h1.34l.12,.12,1.98,6.6Zm-2.05-2.42l-.68-2.62h-.15l-.68,2.62h1.5Z"/>
      <path class="cls-14" d="M175.25,167.13v6.55l-.13,.18h-1.04l-.12-.18v-4.22h-.07l-.92,2.26h-1.05l-.91-2.26h-.07v4.22s-.12,.18-.12,.18h-1.04l-.12-.18v-6.55l.12-.18h1.38l1.26,3h.06l1.25-3h1.39l.13,.18Z"/>
      <path class="cls-14" d="M181.74,173.67l-.14,.19h-1.09l-.13-.19-.33-1.15h-2.21s-.35,1.18-.35,1.18l-.12,.16h-1.08l-.11-.16,2.01-6.62,.12-.13h1.34l.12,.12,1.98,6.6Zm-2.05-2.42l-.68-2.62h-.15l-.68,2.62h1.5Z"/>
      <path class="cls-14" d="M183.96,167.13v6.55l-.13,.18h-1.04l-.12-.18v-6.55l.12-.18h1.04l.13,.18Z"/>
      <path class="cls-14" d="M187.64,166.95c.39,0,.76,.09,1.09,.26,.34,.17,.63,.41,.88,.72,.25,.31,.44,.67,.58,1.09s.21,.87,.21,1.36-.07,.95-.21,1.37c-.14,.43-.33,.79-.58,1.1-.25,.31-.54,.55-.88,.73-.34,.18-.7,.27-1.09,.27s-.76-.09-1.09-.27c-.33-.18-.62-.42-.87-.73-.25-.31-.44-.68-.58-1.1-.14-.42-.21-.88-.21-1.38s.07-.95,.21-1.37,.33-.78,.58-1.08,.54-.54,.87-.72c.33-.17,.7-.26,1.09-.26Zm.01,1.44c-.19,0-.38,.05-.55,.15-.17,.1-.33,.24-.46,.42-.13,.18-.24,.39-.31,.64-.08,.25-.12,.51-.12,.79s.04,.55,.12,.8c.08,.25,.18,.46,.31,.64,.13,.18,.28,.32,.46,.43,.17,.1,.36,.15,.55,.15s.38-.05,.55-.15c.17-.1,.32-.24,.45-.43,.13-.18,.23-.39,.3-.64s.11-.51,.11-.8-.04-.55-.11-.79c-.07-.24-.17-.46-.3-.64-.13-.18-.28-.32-.45-.42-.17-.1-.35-.15-.55-.15Z"/>
      <path class="cls-14" d="M195.71,169.36c0,.53-.08,.98-.24,1.36-.16,.37-.39,.66-.69,.86l1.05,2.1-.12,.18h-1.32l-.88-1.94h-.9v1.78l-.12,.17h-1.04l-.13-.17v-6.56l.13-.18h2.14c.68,0,1.2,.21,1.57,.62,.37,.41,.55,1.01,.55,1.79Zm-2.11,1.17c.28,0,.5-.09,.65-.28,.15-.19,.23-.47,.23-.83s-.08-.63-.23-.81c-.16-.18-.37-.27-.65-.27h-.98v2.2h.98Z"/>
      <path class="cls-14" d="M202.33,173.67l-.14,.19h-1.09l-.13-.19-.33-1.15h-2.21s-.35,1.18-.35,1.18l-.12,.16h-1.08l-.11-.16,2.01-6.62,.12-.13h1.34l.12,.12,1.98,6.6Zm-2.05-2.42l-.68-2.62h-.15l-.68,2.62h1.5Z"/>
      <path class="cls-14" d="M208.11,167.12v6.56l-.12,.18h-1.8l-1.58-4.81h-.07v4.65s-.12,.17-.12,.17h-1.04l-.12-.17v-6.56l.12-.18h1.79l1.58,4.81h.07v-4.65l.13-.18h1.04l.12,.18Z"/>
      <path class="cls-14" d="M210.33,167.13v6.55l-.13,.18h-1.04l-.12-.18v-6.55l.12-.18h1.04l.13,.18Z"/>
    </g>
  </g>
</svg>